<svg width="200" height="20" viewBox="0 0 200 20" fill="none" xmlns="http://www.w3.org/2000/svg">
<path d="M3.05057 19.844L0 19.844L-2.97703e-06 3.31337L3.05057 3.31337L3.05057 19.844Z" fill="#E30713"/>
<path d="M9.08017 19.856L5.91797 19.856L5.91797 3.80554L9.08017 3.80554L9.08017 19.856Z" fill="#E30713"/>
<path d="M23.2502 19.7478L20.0137 19.7478L20.0137 1.94467L23.2502 1.94467L23.2502 19.7478Z" fill="#E30713"/>
<path d="M30.5799 19.844L25.9297 19.844L25.9297 3.06128L30.5799 3.06128L30.5799 19.844Z" fill="#E30713"/>
<path d="M41.9656 19.7478L34.6367 19.7478L34.6367 2.35284L41.9656 2.35284L41.9656 19.7478Z" fill="#E30713"/>
<path d="M49.8141 19.7478L46.0195 19.7478L46.0195 0.624142L49.8141 0.624142L49.8141 19.7478Z" fill="#E30713"/>
<path d="M57.8503 19.7478L52.4932 19.7478L52.4932 3.66136L57.8503 3.66136L57.8503 19.7478Z" fill="#E30713"/>
<path d="M70.9454 19.7478L66.5928 19.7478L66.5928 3.32524L70.9454 3.32524L70.9454 19.7478Z" fill="#E30713"/>
<path d="M83.1474 19.844L79.6133 19.844L79.6133 3.31337L83.1474 3.31337L83.1474 19.844Z" fill="#E30713"/>
<path d="M93.6001 19.844L87.127 19.844L87.1269 5.53131e-05L93.6001 5.53554e-05L93.6001 19.844Z" fill="#E30713"/>
<path d="M105.732 19.844L96.543 19.844L96.543 2.91722L105.732 2.91722L105.732 19.844Z" fill="#E30713"/>
<path d="M117.223 19.844L108.704 19.844L108.704 3.31337L117.223 3.31337L117.223 19.844Z" fill="#E30713"/>
<path d="M124.219 19.844L120.238 19.844L120.238 3.31337L124.219 3.31337L124.219 19.844Z" fill="#E30713"/>
<path d="M132.105 19.844L128.311 19.844L128.311 3.31337L132.105 3.31337L132.105 19.844Z" fill="#E30713"/>
<path d="M137.91 19.844L134.971 19.844L134.971 2.91722L137.91 2.91722L137.91 19.844Z" fill="#E30713"/>
<path d="M144.046 19.844L140.438 19.844L140.437 3.06128L144.046 3.06128L144.046 19.844Z" fill="#E30713"/>
<path d="M158.333 19.844L146.838 19.844L146.838 1.96883L158.333 1.96883L158.333 19.844Z" fill="#E30713"/>
<path d="M165.139 19.844L161.27 19.844L161.27 2.77316L165.139 2.77316L165.139 19.844Z" fill="#E30713"/>
<path d="M178.571 20H173.771V2.521H178.571V20Z" fill="#E30713"/>
<path d="M184.971 20H181.362V3.58942H184.971V20Z" fill="#E30713"/>
<path d="M200 20H193.639V3.58942H200V20Z" fill="#E30713"/>
</svg>
